<svg width="644" height="645" viewBox="0 0 644 645" fill="none" xmlns="http://www.w3.org/2000/svg">
<path d="M205.539 438.472V438.472C175.075 408.007 159.842 392.775 150.356 377.143C121.018 328.794 121.018 268.139 150.356 219.79C159.842 204.158 175.075 188.926 205.539 158.461L223.412 140.588C253.877 110.123 269.11 94.8906 284.742 85.4046C333.09 56.0663 393.746 56.0663 442.094 85.4046C457.727 94.8906 472.959 110.123 503.424 140.588V140.588" stroke="#FFF7F9" stroke-width="92.6799" stroke-linecap="round"/>
<path d="M140.007 504.007V504.007C170.472 534.472 185.705 549.704 201.337 559.19C249.685 588.529 310.341 588.529 358.689 559.19C374.322 549.704 389.554 534.472 420.019 504.007L437.892 486.134C468.357 455.67 483.589 440.437 493.075 424.805C522.413 376.457 522.413 315.801 493.075 267.452C483.589 251.82 468.357 236.588 437.892 206.123V206.123" stroke="#FFF7F9" stroke-width="92.6799" stroke-linecap="round"/>
</svg>
